<?xml version="1.0" encoding="UTF-8" standalone="no"?> 
<svg id="Layer_1" data-name="Layer 1" xmlns="http://www.w3.org/2000/svg" viewBox="0 0 128 128">
<defs>
    <style>.cls-1{fill:#FFFFFF;}.cls-2{fill:#FFFFFF;}</style>
</defs>
<title>n</title>
<path class="cls-1" d="M34.89463,78.77139H93.104A3.02785,3.02785,0,0,0,96.13243,75.743V4.56068A3.02785,3.02785,0,0,0,93.104,1.53225H34.89463A3.02785,3.02785,0,0,0,31.8662,4.56068V75.743A3.02785,3.02785,0,0,0,34.89463,78.77139ZM37.92589,7.58627H90.07274V72.71736H37.92589Z"/>
<path class="cls-1" d="M58.12612,25.83716a5.98391,5.98391,0,0,0,11.74761,0l.91344-4.70847A6.30323,6.30323,0,0,0,64.54245,13.976H63.45739a6.30328,6.30328,0,0,0-6.24476,7.15264Z"/>
<path class="cls-1" d="M77.64066,36.0766a1.7776,1.7776,0,0,0-1.1439-1.30572L70.11931,32.506,64,38.62533,57.88057,32.506l-6.37745,2.26489a1.77767,1.77767,0,0,0-1.144,1.30572l-2.1788,10.2539H79.8195Z"/>
<path class="cls-1" d="M82.16677,57.41167a1.92311,1.92311,0,0,0-1.92011-1.92011H47.751a1.92012,1.92012,0,0,0,0,3.84024H80.24666A1.92312,1.92312,0,0,0,82.16677,57.41167Z"/>
<path class="cls-2" d="M113.01066,24.07676H101.82134v10.625h9.05127a.7544.7544,0,0,1,.10775.40833V93.46126H17.01963V35.11012a.77936.77936,0,0,1,.1021-.40833h9.05692v-10.625H14.98934a8.27457,8.27457,0,0,0-8.26581,8.26581V100.0257a8.26912,8.26912,0,0,0,8.26581,8.25729H46.32849l-5.45289,13.92283a3.12252,3.12252,0,0,0,2.90934,4.26193H84.01088a3.12349,3.12349,0,0,0,2.92067-4.23072l-5.2884-13.954h31.3675a8.27094,8.27094,0,0,0,8.26581-8.25729V32.34256A8.2764,8.2764,0,0,0,113.01066,24.07676Z"/>
</svg>