<svg width="80" height="80" viewBox="0 0 80 80" fill="none" xmlns="http://www.w3.org/2000/svg">
<path d="M63.0804 40C63.0804 39.1964 62.8126 38.5268 62.2769 37.9911L58.2144 33.9286L42.0536 17.7679C41.5179 17.2322 40.8483 16.9643 40.0447 16.9643C39.2411 16.9643 38.5715 17.2322 38.0358 17.7679L33.9733 21.8304C33.4376 22.3661 33.1697 23.0357 33.1697 23.8393C33.1697 24.6429 33.4376 25.3125 33.9733 25.8482L42.4108 34.2857H20.0001C19.2263 34.2857 18.5566 34.5685 17.9911 35.1339C17.4257 35.6994 17.1429 36.3691 17.1429 37.1429V42.8571C17.1429 43.631 17.4257 44.3006 17.9911 44.8661C18.5566 45.4316 19.2263 45.7143 20.0001 45.7143H42.4108L33.9733 54.1518C33.4078 54.7173 33.1251 55.3869 33.1251 56.1607C33.1251 56.9345 33.4078 57.6042 33.9733 58.1696L38.0358 62.2321C38.5715 62.7679 39.2411 63.0357 40.0447 63.0357C40.8483 63.0357 41.5179 62.7679 42.0536 62.2321L58.2144 46.0714L62.2769 42.0089C62.8126 41.4732 63.0804 40.8036 63.0804 40ZM74.2858 40C74.2858 46.2202 72.7531 51.9569 69.6876 57.2098C66.6221 62.4628 62.4629 66.622 57.2099 69.6875C51.9569 72.753 46.2203 74.2857 40.0001 74.2857C33.7798 74.2857 28.0432 72.753 22.7903 69.6875C17.5373 66.622 13.378 62.4628 10.3126 57.2098C7.24709 51.9569 5.71436 46.2202 5.71436 40C5.71436 33.7798 7.24709 28.0432 10.3126 22.7902C13.378 17.5372 17.5373 13.378 22.7903 10.3125C28.0432 7.24703 33.7798 5.71429 40.0001 5.71429C46.2203 5.71429 51.9569 7.24703 57.2099 10.3125C62.4629 13.378 66.6221 17.5372 69.6876 22.7902C72.7531 28.0432 74.2858 33.7798 74.2858 40Z" fill="#CE6262"/>
</svg>
