<svg width="121" height="118" viewBox="0 0 121 118" fill="none" xmlns="http://www.w3.org/2000/svg">
<path fill-rule="evenodd" clip-rule="evenodd" d="M60.388 0C27.041 0 0 27.035 0 60.388C0 87.07 17.303 109.705 41.297 117.691C44.314 118.251 45.422 116.381 45.422 114.786C45.422 113.346 45.366 108.589 45.34 103.543C28.54 107.196 24.995 96.418 24.995 96.418C22.248 89.438 18.29 87.582 18.29 87.582C12.81 83.834 18.703 83.912 18.703 83.912C24.766 84.337 27.96 90.135 27.96 90.135C33.346 99.365 42.087 96.697 45.533 95.155C46.075 91.252 47.64 88.587 49.367 87.079C35.954 85.554 21.853 80.375 21.853 57.236C21.853 50.643 24.213 45.256 28.076 41.026C27.448 39.506 25.381 33.364 28.66 25.046C28.66 25.046 33.73 23.423 45.27 31.236C50.088 29.897 55.255 29.224 60.388 29.201C65.518 29.224 70.688 29.895 75.515 31.234C87.041 23.421 92.105 25.044 92.105 25.044C95.392 33.361 93.325 39.504 92.698 41.024C96.57 45.254 98.913 50.641 98.913 57.234C98.913 80.428 84.786 85.534 71.339 87.03C73.506 88.904 75.436 92.58 75.436 98.213C75.436 106.293 75.366 112.796 75.366 114.785C75.366 116.392 76.454 118.275 79.514 117.682C103.494 109.688 120.777 87.06 120.777 60.388C120.776 27.037 93.738 0.000999928 60.388 0.000999928V0Z" fill="white"/>
<path d="M22.872 86.703C22.739 87.003 22.267 87.093 21.837 86.888C21.397 86.692 21.152 86.283 21.294 85.982C21.424 85.672 21.897 85.587 22.334 85.794C22.774 85.991 23.024 86.404 22.871 86.704L22.872 86.703ZM25.318 89.432C25.031 89.699 24.468 89.575 24.086 89.152C23.69 88.732 23.616 88.169 23.909 87.898C24.207 87.632 24.753 87.758 25.149 88.178C25.543 88.604 25.621 89.162 25.319 89.433L25.318 89.432ZM27.7 92.909C27.33 93.167 26.724 92.926 26.35 92.389C25.98 91.851 25.98 91.206 26.36 90.949C26.733 90.691 27.33 90.924 27.71 91.456C28.078 92.001 28.078 92.646 27.7 92.908V92.909ZM30.961 96.27C30.631 96.635 29.925 96.537 29.409 96.04C28.882 95.553 28.735 94.86 29.066 94.496C29.402 94.13 30.111 94.232 30.63 94.726C31.157 95.212 31.316 95.906 30.963 96.269L30.961 96.27ZM35.461 98.221C35.314 98.694 34.636 98.909 33.951 98.707C33.268 98.5 32.821 97.947 32.961 97.469C33.101 96.992 33.784 96.769 34.473 96.984C35.156 97.19 35.603 97.74 35.461 98.221ZM40.404 98.582C40.421 99.08 39.841 99.492 39.124 99.502C38.401 99.519 37.816 99.115 37.809 98.625C37.809 98.122 38.377 97.715 39.099 97.701C39.816 97.688 40.405 98.088 40.405 98.581L40.404 98.582ZM45.002 97.8C45.088 98.285 44.589 98.784 43.876 98.917C43.176 99.047 42.526 98.745 42.436 98.264C42.35 97.766 42.858 97.267 43.558 97.138C44.272 97.015 44.912 97.308 45.002 97.801V97.8Z" fill="white"/>
</svg>
