<svg width="128" height="128" viewBox="0 0 128 128" fill="none" xmlns="http://www.w3.org/2000/svg">
<path d="M19.67 26L27.739 116.493L63.945 126.543L100.252 116.48L108.33 26H19.67V26ZM88.88 76.488L86.53 98.38L86.539 100.255L64 106.55V106.551L63.982 106.566L41.263 100.341L39.726 83H50.867L51.657 91.766L64.004 95.061L64 95.076V95.044L76.394 91.549L77.702 77H51.795L51.573 74.645L51.067 68.998L50.802 66H78.688L79.702 55H37.229L37.006 52.411L36.5 46.381L36.235 43H91.832L91.565 46.334L88.88 76.488" fill="white"/>
<path d="M89 14.374L81.851 6H89V1H73V5.363L81.39 13H73V18H89V14.374ZM70 14.374L63.193 6H70V1H55V5.363L62.733 13H55V18H70V14.374ZM52 13H44V6H52V1H38V18H52V13Z" fill="white"/>
</svg>
