<svg width="126" height="73" viewBox="0 0 126 73" fill="none" xmlns="http://www.w3.org/2000/svg">
<path d="M125.37 70.8391C120.81 71.9991 117.99 70.8891 115.46 67.0891C109.78 58.5791 103.51 50.4591 97.46 42.1891C96.68 41.1191 95.87 40.0691 94.86 38.7391C87.7 48.3991 80.55 57.5991 73.84 67.1691C71.44 70.5891 68.92 72.0791 64.44 70.8691L91.36 34.7391L66.3 2.10907C70.61 1.26907 73.59 1.69907 76.23 5.55907C82.06 14.0791 88.49 22.1891 94.9 30.7691C101.35 22.2191 107.7 14.0991 113.7 5.65906C116.11 2.23906 118.7 0.939065 123.03 2.19907C119.75 6.54907 116.54 10.8291 113.31 15.0791C108.95 20.8091 104.67 26.6091 100.15 32.2191C98.54 34.2191 98.8 35.5191 100.24 37.4091C108.6 48.3991 116.86 59.4991 125.37 70.8391Z" fill="white"/>
<path d="M0.0300001 34.1391C0.75 30.5291 1.23 26.8491 2.23 23.3091C8.23 1.87908 32.83 -7.03092 49.73 6.24908C59.63 14.0391 62.09 25.0191 61.6 37.3991H5.8C4.96 59.6091 20.95 73.0191 41.33 66.1791C48.48 63.7791 52.69 58.1791 54.8 51.1791C55.87 47.6691 57.64 47.1191 60.94 48.1191C59.25 56.8791 55.42 64.1991 47.42 68.7791C35.42 75.6391 18.29 73.4191 9.28 63.8891C3.96 58.2891 1.7 51.3191 0.7 43.7891C0.55 42.5891 0.24 41.4091 0 40.2191C0.02 38.1924 0.0300001 36.1658 0.0300001 34.1391ZM5.9 32.6491H56.33C56 16.5891 46 5.17908 32.33 5.07908C17.33 4.95908 6.55 16.0991 5.9 32.6491Z" fill="white"/>
</svg>
