<svg width="120" height="120" viewBox="0 0 120 120" fill="none" xmlns="http://www.w3.org/2000/svg">
<path fill-rule="evenodd" clip-rule="evenodd" d="M60 0C26.863 0 0 26.863 0 60C0 93.137 26.863 120 60 120C93.137 120 120 93.137 120 60C120 26.863 93.137 0 60 0ZM60 84C60 90.6275 54.6275 96 48 96C41.3725 96 36 90.6275 36 84C36 77.3725 41.3725 72 48 72C41.3725 72 36 66.6275 36 60C36 53.3725 41.3725 48 48 48C41.3725 48 36 42.6275 36 36C36 29.3725 41.3725 24 48 24H60H72C78.6275 24 84 29.3725 84 36C84 42.6275 78.6275 48 72 48H60V60V72V84ZM60 60C60 66.6275 65.3725 72 72 72C78.6275 72 84 66.6275 84 60C84 53.3725 78.6275 48 72 48C65.3725 48 60 53.3725 60 60Z" fill="white"/>
</svg>
