<svg width="120" height="120" viewBox="0 0 120 120" fill="none" xmlns="http://www.w3.org/2000/svg">
<path fill-rule="evenodd" clip-rule="evenodd" d="M120 60C120 93.1371 93.1371 120 60 120C26.8629 120 0 93.1371 0 60C0 26.8629 26.8629 0 60 0C93.1371 0 120 26.8629 120 60ZM12.8569 60.8572C12.8569 72.4286 17.5712 84.4286 26.5712 93.4286C35.5712 102.429 47.5712 106.714 59.5712 107.143L12.8569 60.8572ZM14.1426 49.7143L70.2855 105.857C91.2855 101.143 107.143 82.2857 107.143 60H77.1426V68.5715H97.7141C94.7141 81.4286 85.2855 92.1429 72.8569 96.4286L23.5712 47.1429C29.1426 32.1429 43.2855 21.4286 59.9998 21.4286C72.8569 21.4286 84.4284 27.8572 91.7141 37.7143L98.1426 32.1429C89.5712 20.5715 75.8569 12.8572 59.9998 12.8572C37.7141 12.8572 18.8569 28.7143 14.1426 49.7143Z" fill="white"/>
</svg>
