<svg width="120" height="120" viewBox="0 0 120 120" fill="none" xmlns="http://www.w3.org/2000/svg">
<path d="M12.928 88.3079L17.2407 90.7979L65.2857 7.5839L60.973 5.0939L12.928 88.3079Z" fill="white"/>
<path d="M108.03 81.6599H11.9404V86.6399H108.03V81.6599Z" fill="white"/>
<path d="M13.8418 84.4578L61.9048 112.208L64.3948 107.895L16.3318 80.1451L13.8418 84.4578Z" fill="white"/>
<path d="M55.5937 12.134L103.657 39.884L106.147 35.5714L58.0837 7.82135L55.5937 12.134Z" fill="white"/>
<path d="M13.8552 35.5526L16.3452 39.8652L64.4082 12.1152L61.9182 7.80255L13.8552 35.5526Z" fill="white"/>
<path d="M54.7255 7.58513L102.771 90.7991L107.083 88.3091L59.0382 5.09514L54.7255 7.58513Z" fill="white"/>
<path d="M20.73 32.25H15.75V87.75H20.73V32.25Z" fill="white"/>
<path d="M104.25 32.25H99.27V87.75H104.25V32.25Z" fill="white"/>
<path d="M58.8816 106.333L61.0566 110.1L102.858 85.9646L100.683 82.1975L58.8816 106.333Z" fill="white"/>
<path d="M110.85 89.3701C107.97 94.3801 101.55 96.0901 96.5403 93.2101C91.5303 90.3301 89.8203 83.9101 92.7003 78.9001C95.5803 73.8901 102 72.1801 107.01 75.0601C112.05 77.9701 113.76 84.3601 110.85 89.3701Z" fill="white"/>
<path d="M27.2702 41.1001C24.3902 46.1101 17.9702 47.8201 12.9602 44.9401C7.95019 42.0601 6.24019 35.6401 9.12019 30.6301C12.0002 25.6201 18.4202 23.9101 23.4302 26.7901C28.4402 29.7001 30.1502 36.0901 27.2702 41.1001Z" fill="white"/>
<path d="M9.14997 89.3701C6.26997 84.3601 7.97997 77.9701 12.99 75.0601C18 72.1801 24.39 73.8901 27.3 78.9001C30.18 83.9101 28.47 90.3001 23.46 93.2101C18.42 96.0901 12.03 94.3801 9.14997 89.3701Z" fill="white"/>
<path d="M92.7301 41.1001C89.8501 36.0901 91.56 29.7001 96.5701 26.7901C101.58 23.9101 107.97 25.6201 110.88 30.6301C113.76 35.6401 112.05 42.0301 107.04 44.9401C102.03 47.8201 95.6101 46.1101 92.7301 41.1001Z" fill="white"/>
<path d="M60.0003 118.74C54.2103 118.74 49.5303 114.06 49.5303 108.27C49.5303 102.48 54.2103 97.8 60.0003 97.8C65.7903 97.8 70.4703 102.48 70.4703 108.27C70.4703 114.03 65.7903 118.74 60.0003 118.74Z" fill="white"/>
<path d="M60.0003 22.2C54.2103 22.2 49.5303 17.52 49.5303 11.73C49.5303 5.94001 54.2103 1.26001 60.0003 1.26001C65.7903 1.26001 70.4703 5.94001 70.4703 11.73C70.4703 17.52 65.7903 22.2 60.0003 22.2Z" fill="white"/>
</svg>
