<svg width="128" height="128" viewBox="0 0 128 128" fill="none" xmlns="http://www.w3.org/2000/svg">
<path d="M19.569 27L27.656 116.919L63.945 126.601L100.335 117.102L108.431 27H19.569V27ZM91.61 47.471L91.103 53.305L90.88 56H48.311L49.328 68H89.868L89.597 70.231L86.982 99.14L86.79 100.83L64 106.964V106.959L63.973 106.971L41.196 101.055L39.65 84H50.818L51.609 92.46L63.994 95.599L64 95.365V95.377L76.412 92.728L77.708 79H39.153L36.419 48.164L36.152 45H91.876L91.61 47.471V47.471ZM27.956 1.62695H33.578V7.18295H38.722V1.62695H44.345V18.449H38.722V12.816H33.579V18.449H27.956V1.62695V1.62695ZM51.738 7.20595H46.788V1.62695H62.313V7.20595H57.361V18.449H51.738V7.20595V7.20595ZM64.777 1.62695H70.639L74.246 7.53795L77.849 1.62695H83.714V18.449H78.113V10.111L74.246 16.092H74.148L70.278 10.111V18.449H64.776V1.62695H64.777ZM86.513 1.62695H92.137V12.889H100.044V18.45H86.513V1.62695V1.62695Z" fill="white"/>
</svg>
