<svg width="128" height="128" viewBox="0 0 128 128" fill="none" xmlns="http://www.w3.org/2000/svg">
<path fill-rule="evenodd" clip-rule="evenodd" d="M90.491 57.2821C90.121 52.4921 88.995 47.8731 87.429 43.3481C84.185 33.2441 78.979 24.3021 71.646 16.6081C69.792 14.6621 67.73 12.8791 66.437 10.4571C65.619 8.92505 64.84 7.37205 64.043 5.82805L63.538 4.55505C63.453 4.84705 63.399 4.95105 63.396 5.05605C63.331 7.57305 61.905 9.28005 60.129 10.8731C58.132 12.6661 56.273 14.6121 54.354 16.4911C52.386 19.0791 50.419 21.6671 48.453 24.2541C46.861 27.1791 45.271 30.1041 43.681 33.0291L40.491 41.6461L40.395 41.7801C38.639 47.5481 37.773 53.4781 37.347 59.4681C37.187 61.7191 37.369 64.0031 37.496 66.2661C37.677 69.5011 38.239 72.6811 39.082 75.8111C42.144 87.1831 48.358 96.6161 56.853 104.63C58.432 106.119 60.052 107.473 61.7 108.89C61.982 107.925 62.207 106.96 62.463 105.995C62.719 105.034 62.978 104.078 63.151 103.114C62.977 104.078 62.782 105.034 62.589 105.995L61.763 108.89L62.501 111.391L63.185 115.275L63.511 119.328C63.508 120.151 63.475 120.976 63.525 121.798C63.537 122.008 63.813 122.202 63.967 122.404L65.343 122.887L66.777 123.445L66.531 119.842L66.52 116.294L67.015 110.889L67.374 109.712L68.401 107.892C69.669 106.872 71.03 105.946 72.185 104.811C74.275 102.757 76.36 100.677 78.23 98.4281C80.657 95.5111 82.745 92.3271 84.421 88.9121C85.543 86.6281 86.599 84.2981 87.473 81.9111C88.243 79.8071 88.72 77.5961 89.327 75.4321C89.381 75.2761 89.453 75.1231 89.487 74.9641C90.741 69.1231 90.952 63.2231 90.491 57.2821V57.2821ZM66.892 106.657L66.087 104.894L66.892 106.657L68.075 107.667L66.892 106.657Z" fill="white"/>
</svg>
