<svg width="256" height="256" viewBox="0 0 256 256" fill="none" xmlns="http://www.w3.org/2000/svg">
<g clip-path="url(#clip0)">
<path d="M153.094 165.679L90.3094 152.558C90.0414 153.07 89.7534 153.566 89.4334 154.034L146.59 237.412L150.038 233.968L159.762 173.499C156.454 172.111 153.966 169.211 153.094 165.679ZM130.19 83.6053C127.838 87.2134 123.778 89.6014 119.154 89.6014C118.442 89.6014 117.75 89.5294 117.07 89.4214L88.4374 134.222L164.935 101.302C164.911 100.994 164.843 100.706 164.843 100.39C164.843 99.7456 164.931 99.1215 165.035 98.5055L130.19 83.6053ZM132.27 75.4412L169.335 91.2894C170.507 90.3734 171.843 89.6934 173.311 89.2814L179.403 51.4008L156.194 28.1924L130.07 69.0691C131.322 70.9171 132.098 73.0931 132.27 75.4412ZM209.935 81.9333L186.675 58.6689L181.619 90.0774C182.907 90.7294 184.055 91.5974 185.015 92.6614L209.935 81.9333ZM154.206 157.406C156.018 154.13 159.362 151.866 163.295 151.562L169.975 110.014C169.451 109.666 168.983 109.25 168.523 108.822L91.5854 141.934C91.7814 142.738 91.9174 143.558 91.9814 144.41L154.206 157.406ZM216.271 88.2734L189.359 99.8536L255.76 128.242L256 128.002L216.271 88.2734ZM168.179 173.623L160.09 223.908L207.055 176.943L173.227 169.879C171.935 171.563 170.203 172.867 168.179 173.623ZM76.8932 160.695C75.1932 160.695 73.5651 160.403 72.0411 159.887L56.4409 184.299L50.4128 178.275L65.189 155.154C64.821 154.702 64.485 154.226 64.169 153.738L37.4006 165.263L31.0565 158.918L60.3569 146.306L7.38412 135.25L0.140002 128.002L2.43204 125.71L63.517 138.462C64.225 137.126 65.125 135.898 66.185 134.846L36.5366 91.6014L42.5247 85.6133L73.5012 130.798C74.5932 130.55 75.7252 130.402 76.8932 130.402C78.2012 130.402 79.4692 130.586 80.6813 130.898L109.666 85.5453C107.394 83.1773 105.99 79.9692 105.99 76.4292C105.99 75.3892 106.122 74.3812 106.35 73.4131L70.1891 57.9529L76.5332 51.6088L110.794 66.261C113.07 64.389 115.982 63.265 119.158 63.265C120.658 63.265 122.098 63.529 123.446 63.993L150.17 22.1683L128.002 0L0 128.002L128.002 256.004L140.598 243.408L83.0133 159.398C81.1373 160.227 79.0692 160.695 76.8932 160.695ZM178.123 111.806L171.327 154.042C173.667 155.93 175.227 158.694 175.523 161.855L214.095 169.907L249.416 134.586L185.663 107.33C183.875 109.706 181.203 111.354 178.123 111.806Z" fill="white"/>
</g>
<defs>
<clipPath id="clip0">
<rect width="256" height="256" fill="white"/>
</clipPath>
</defs>
</svg>
