<svg width="107" height="121" viewBox="0 0 107 121" fill="none" xmlns="http://www.w3.org/2000/svg">
<path d="M102.771 26.793L58.674 1.188C55.893 -0.396 52.272 -0.396 49.469 1.188L4.901 26.793C2.031 28.444 0 31.547 0 34.866V86.008C0 89.327 2.084 92.431 4.954 94.091L16.729 100.779C22.357 103.551 24.346 103.551 26.907 103.551C35.24 103.551 40 98.512 40 89.723V39.233C40 38.52 39.629 37.459 38.929 37.459H33.306C32.594 37.459 31 38.52 31 39.232V89.722C31 93.618 27.476 97.495 20.89 94.202L8.723 87.189C8.299 86.959 8 86.496 8 86.008V34.866C8 34.384 8.555 33.9 8.982 33.653L53.406 8.092C53.821 7.857 54.431 7.857 54.845 8.092L98.727 33.647C99.147 33.9 98.999 34.369 98.999 34.866V86.008C98.999 86.496 99.182 86.971 98.767 87.206L54.681 112.782C54.303 113.009 53.834 113.009 53.42 112.782L42.113 106.033C41.772 105.835 41.367 105.764 41.04 105.947C37.894 107.73 37.314 107.967 34.363 108.99C33.637 109.243 32.566 109.682 34.773 110.919L49.571 119.673C50.988 120.493 52.598 120.919 54.218 120.919C55.86 120.919 57.468 120.493 58.885 119.673L102.77 94.091C105.64 92.419 107 89.327 107 86.008V34.866C107 31.547 105.64 28.452 102.771 26.793V26.793ZM67.91 77.904C56.184 77.904 53.601 74.669 52.74 68.838C52.64 68.21 52.107 67.459 51.468 67.459H45.737C45.028 67.459 44.458 68.319 44.458 69.025C44.458 76.491 48.517 85.537 67.911 85.537C81.95 85.537 89.999 80.082 89.999 70.428C89.999 60.856 83.532 58.344 69.917 56.542C56.155 54.723 54.757 53.804 54.757 50.58C54.757 47.922 55.941 44.377 66.131 44.377C75.236 44.377 78.592 46.331 79.973 52.468C80.091 53.045 80.618 53.459 81.213 53.459H86.967C87.321 53.459 87.659 53.316 87.907 53.063C88.147 52.791 88.274 52.45 88.242 52.084C87.351 41.516 80.33 36.591 66.13 36.591C53.499 36.591 45.964 41.925 45.964 50.866C45.964 60.564 53.461 63.244 65.586 64.443C80.091 65.865 81.219 67.985 81.219 70.838C81.219 75.793 77.241 77.904 67.91 77.904Z" fill="white"/>
</svg>
