<svg width="130" height="134" viewBox="0 0 130 134" fill="none" xmlns="http://www.w3.org/2000/svg">
<g filter="url(#filter0_d)">
<path d="M50.33 62H79.489C87.606 62 94 55.132 94 46.981V19.183C94 11.271 87.368 5.32701 79.445 4.00701C74.431 3.17201 69.25 2.79201 64.258 2.81601C59.268 2.83901 54.646 3.26401 50.453 4.00701C38.098 6.18801 36 10.758 36 19.183V30H65V34H24.776C16.292 34 8.86202 39.108 6.53902 48.811C3.85802 59.931 3.73902 66.73 6.53902 78.341C8.61402 86.983 13.569 93 22.054 93H32V79.952C32 70.315 40.428 62 50.33 62V62ZM48.492 22.89C45.466 22.89 43.014 20.411 43.014 17.345C43.014 14.266 45.465 11.764 48.492 11.764C51.507 11.764 53.971 14.266 53.971 17.345C53.97 20.411 51.506 22.89 48.492 22.89ZM123.281 48.811C121.183 40.363 117.178 34 108.682 34H98V46.981C98 57.031 89.206 65 79.489 65H50.33C42.342 65 36 72.326 36 80.326V108.126C36 116.036 42.745 120.69 50.462 122.96C59.704 125.677 68.456 126.168 79.513 122.96C86.862 120.831 94 116.549 94 108.126V97H65V93H108.682C117.166 93 120.329 87.224 123.281 78.34C126.328 69.195 126.197 60.541 123.281 48.811V48.811ZM81.326 104.417C84.353 104.417 86.805 106.896 86.805 109.964C86.805 113.04 84.354 115.543 81.326 115.543C78.311 115.543 75.848 113.041 75.848 109.964C75.848 106.896 78.311 104.417 81.326 104.417Z" fill="white"/>
</g>
<defs>
<filter id="filter0_d" x="-3" y="0" width="136" height="136" filterUnits="userSpaceOnUse" color-interpolation-filters="sRGB">
<feFlood flood-opacity="0" result="BackgroundImageFix"/>
<feColorMatrix in="SourceAlpha" type="matrix" values="0 0 0 0 0 0 0 0 0 0 0 0 0 0 0 0 0 0 127 0"/>
<feOffset dy="4"/>
<feGaussianBlur stdDeviation="2"/>
<feColorMatrix type="matrix" values="0 0 0 0 0 0 0 0 0 0 0 0 0 0 0 0 0 0 0.25 0"/>
<feBlend mode="normal" in2="BackgroundImageFix" result="effect1_dropShadow"/>
<feBlend mode="normal" in="SourceGraphic" in2="effect1_dropShadow" result="shape"/>
</filter>
</defs>
</svg>
